<?xml version="1.0" standalone="no"?>
<!DOCTYPE svg PUBLIC "-//W3C//DTD SVG 20010904//EN"
 "http://www.w3.org/TR/2001/REC-SVG-20010904/DTD/svg10.dtd">
<svg version="1.0" xmlns="http://www.w3.org/2000/svg"
 width="140.000000pt" height="140.000000pt" viewBox="0 0 140.000000 140.000000"
 preserveAspectRatio="xMidYMid meet">
<metadata>
Created by potrace 1.11, written by Peter Selinger 2001-2013
</metadata>
<g transform="translate(0.000000,140.000000) scale(0.100000,-0.100000)"
fill="#000000" stroke="none">
<path d="M632 1098 c-213 -33 -365 -245 -331 -460 53 -327 455 -457 686 -222
239 245 89 654 -252 686 -27 3 -74 1 -103 -4z m236 -77 c72 -39 119 -88 159
-163 25 -48 28 -62 28 -158 0 -100 -1 -108 -34 -168 -39 -72 -88 -120 -163
-159 -48 -25 -62 -28 -158 -28 -96 0 -110 3 -158 28 -75 39 -124 87 -163 159
-33 60 -34 68 -34 168 0 95 3 110 27 157 37 69 81 118 135 150 78 45 112 53
208 50 80 -3 97 -7 153 -36z"/>
</g>
</svg>
